<svg xmlns="http://www.w3.org/2000/svg" viewBox="0 0 301.27 82.04"><defs><style>.cls-1{fill:#1d1c1a;}</style></defs><title>Zasób 5</title><g id="Warstwa_2" data-name="Warstwa 2"><g id="Warstwa_1-2" data-name="Warstwa 1"><path class="cls-1" d="M75.92,47.82c0-.17,0-.32.07-.49.05-.44.11-.87.2-1.3,0-.16.07-.31.1-.46.1-.43.2-.85.32-1.26l.15-.44c.14-.41.27-.81.44-1.21,0-.14.13-.27.19-.41.17-.39.34-.78.54-1.15.07-.14.16-.27.24-.4.2-.36.4-.72.63-1.06.09-.14.2-.27.3-.41.23-.32.46-.65.71-1l.36-.4c.25-.29.51-.58.78-.85s.29-.26.44-.4.53-.5.82-.74l.52-.38c.29-.21.57-.43.86-.63s.42-.24.63-.37.57-.35.87-.51.49-.22.73-.34.57-.28.87-.4.56-.19.84-.29.57-.21.86-.3.65-.15,1-.23l.82-.2c.38-.07.79-.11,1.19-.16.23,0,.45-.08.69-.1.64-.06,1.3-.09,2-.09.46,0,.92,0,1.37,0L96,32l.73.07.76.11.5.08c.29.05.58.11.86.18l.34.07.93.26.21.06,1,.34.12,0q.51.2,1,.42l0,0c.34.15.68.32,1,.49l.18.33.19-.11c.23.13.46.26.68.4h0a5.68,5.68,0,0,0,1.3,1.1,13.54,13.54,0,0,0,1.68,1.69,13.31,13.31,0,0,0,1.66,1.66l0,.06a18,18,0,0,1,1.17,1.93l12.54-7.31c-.36-.6-.74-1.18-1.14-1.76l-.33-.43c-.3-.43-.61-.84-.94-1.25-.12-.16-.26-.3-.38-.46-.33-.38-.66-.77-1-1.14l-.43-.44c-.35-.36-.7-.71-1.07-1.06l-.14-.14c-.53-.58-1.1-1.14-1.68-1.68s-1.1-1.15-1.69-1.69-1.1-1.14-1.68-1.68-1.1-1.15-1.68-1.69-1.1-1.14-1.69-1.68-1.1-1.14-1.68-1.68-1.1-1.15-1.69-1.69-1.1-1.14-1.68-1.68-1.1-1.15-1.68-1.69-1.1-1.14-1.69-1.68C94.77,4,86.05,0,75.51,0c-19.22,0-33.2,14.26-33.2,31.31a31.67,31.67,0,0,0,10,23.44c.54.58,1.11,1.14,1.69,1.68s1.1,1.15,1.68,1.69,1.11,1.14,1.69,1.68,1.1,1.14,1.68,1.69,1.1,1.14,1.68,1.68,1.11,1.14,1.69,1.68,1.1,1.15,1.68,1.69,1.11,1.14,1.69,1.68,1.1,1.14,1.68,1.69,1.1,1.14,1.69,1.68h0c.37.4.75.8,1.14,1.18h0q.57.56,1.17,1.08l.29.25.94.79.42.31c.29.23.58.44.87.66l.5.33c.28.2.56.39.85.57l.54.34.86.51.59.32.86.45.62.31.88.4.65.28.89.35.69.26.91.31.71.22c.31.1.62.18.93.27l.73.19,1,.22.74.16,1,.17.73.12c.36.06.72.1,1.08.14l.7.08c.4,0,.81.06,1.22.09l.59,0c.61,0,1.22,0,1.85,0a35,35,0,0,0,9.19-1.2,32.48,32.48,0,0,0,8-3.33c.61-.35,1.2-.73,1.78-1.12a32.56,32.56,0,0,0,9.76-10.32S104.1,47.73,104.2,47.55L91.66,40.33a17.81,17.81,0,0,1-15.84,9.29c0-.16,0-.32,0-.48,0-.44,0-.89.08-1.32M94,70.53A20.2,20.2,0,0,0,111,62.06l8.39,4.82A30.76,30.76,0,0,1,94,79.67,31.26,31.26,0,0,1,71.89,71a29.37,29.37,0,0,1-8.68-21.21,28.08,28.08,0,0,1,8.67-20.34A31.61,31.61,0,0,1,94,20.9c10.76,0,19.92,4.41,25.51,12.17l-8.35,4.87c-3.71-5.4-9.83-8.44-17.16-8.44-11.75,0-20.61,8.74-20.61,20.33A20.43,20.43,0,0,0,94,70.53"/><path class="cls-1" d="M0,1.08V62.44L18.52,81h14.8V19.61L14.8,1.08ZM20.9,22H31V78.59h-10Z"/><path class="cls-1" d="M130.6,1.08V62.44L149.12,81h47V67.25L184.34,56.69h6.47V43.88L179,33.32h17.11V19.61L177.61,1.08ZM193.76,31H161.54V46.26h26.89v8.05H161.54V69.62h32.22v9H151.5V22h42.26Z"/><path class="cls-1" d="M266.23,1.08,249.79,35.85l-7.71-16.24L223.55,1.08H207.13V62.44L225.66,81h14.8V65.81L255.16,81h16.51l4.75-10.1,10,10.1h14.89V19.61L282.74,1.08ZM298.89,22V78.59H288.76V39l-4.53,9.63-14.06,30h-13.5L242.61,48.64,238.08,39V78.59H228V22h12.55l20.74,43.67,2.15,4.53,2.14-4.53L286.26,22Z"/></g></g></svg>