<svg xmlns="http://www.w3.org/2000/svg" viewBox="0 0 71.53 208.57"><defs><style>.cls-1{fill:#3953a3;}.cls-2{fill:#6872b5;}.cls-3{fill:#6abc45;}.cls-4{fill:#d21c5c;}.cls-5{fill:#eb2027;}.cls-6{fill:#faaf3a;}.cls-7{fill:#f0ea56;}</style></defs><title>Zasób 3</title><g id="Warstwa_2" data-name="Warstwa 2"><g id="Warstwa_1-2" data-name="Warstwa 1"><path class="cls-1" d="M26.29,52.35c-1.31.08-2.29-.72-3.37-1.25-.62-.31-1.35-1.06-.94-1.49,1.9-2-.45-3.55-.17-5.7-1,1-.29,2.74-2.21,2.46-2.27-.34-6-2.48-6.45-4.07-.38-1.3,1.2-3.82,3.26-5.14C14.6,36,12.75,35,11,33.81a5.48,5.48,0,0,1-2.13-6.7c.81-2.47,1.65-4.92,1.27-7.73,2.73.45,4.81,1.94,7.17,2.92,0-.39.11-.61,0-.7-4.57-5.91-4.55-5.89-.37-11.83a35.31,35.31,0,0,0,1.85-3.31l6.6,5.71c-.86-3.53-1.59-6.51-.18-9.8l4.22,6.55.76-.08c0-2-.07-4,0-5.93.05-.91-.57-2.42.93-2.52,1.34-.09.83,1.41,1.06,2.21.3,1.06.44,2.15.67,3.28,1.11-.5.73-1.53,1.08-2.22.64-1.24-.27-3.72,1.59-3.66,1.67.06.88,2.51,1.5,3.8.3.62-.09,1.53.82,2,.82-.58.33-1.56.67-2.25.51-1-.29-3.19,1.42-3.06,1.39.11.7,2,.77,3.14.11,1.74,0,3.5,0,5.87,2.38-2.34,3.23-5,5-7,1.34,3.2.73,6.18-.31,9.8l6.95-6c.56,3.41,3.72,5,4.45,8,.83,3.41-1.74,5.49-4,8.22,3-.8,5.11-2.72,8-3a14.07,14.07,0,0,0,.84,6.4c1.53,4.55.75,6.58-3.39,9.14-1.18.74-2.45,1.35-4,2.17,2.09.46,2.34,2.35,3.33,3.6.78,1,.12,2-.65,2.73a10.14,10.14,0,0,1-6,2.86c-1.09.15-2.25.06-3.17.92,0,1.31,2.19,1.22,1.78,2.45s-2,1.54-3.18,2.06l0,0c-1.67-2.22-4.06-1.74-6.52-1.74a21.37,21.37,0,0,0,6.67-7c.39-.71,1.39-1.47.89-2.21-.64-.94-1.7-.07-2.58,0-.33.05-.65.16-1.58.38,1.38-1.79,2.95-2.24,4.2-3.12,1-.72,1.81-1.59,1-2.79s-1.78-.14-2.6.32-1.51,1.43-3,1.27a9,9,0,0,1,2.86-3.67c.7-.63,1.47-1.18,2.11-1.86,1.32-1.41.57-2.64-.62-3.58-1.35-1.07-1.78.36-2.25,1.13-1.06,1.72-2,3.53-3.2,5.21-.09-2.27,1.16-4.15,1.64-6.24.32-1.42.64-2.79-.39-4a2.49,2.49,0,0,0-2.43-1.12c-.91.21-.8,1.19-1,1.87-.52,2.15-.09,4.48-1.21,6.76-.3-2-.46-3.7-.87-5.4-.3-1.24-.7-2.85-2.28-2.8-1.36.05-1.68,1.55-2.12,2.69-.66,1.7-.37,3.52-.79,5.68-1.15-2.24-.7-4.38-1.21-6.31-.24-.93.24-2.65-1.51-2.47a2.84,2.84,0,0,0-2.63,3.12c0,2.11,1,4,1.64,5.93a3.63,3.63,0,0,1,.38,2.81c-1.18-2.08-2.1-3.76-3.09-5.4-.46-.77-.76-1.94-1.9-1.77-.84.13-1.32,1-1.68,1.78-.47,1.06.08,1.78.82,2.45,1.68,1.53,3.74,2.73,4.56,5.18-1.48.25-2.14-.84-3.07-1.36-.77-.43-1.6-1.41-2.42-.28s-.18,2.07.87,2.81c1.27.88,2.83,1.38,3.91,2.64-.28.17-.43.33-.56.32-1.08-.11-2.41-1.23-3.13-.26s.66,2,1.2,2.89a15.78,15.78,0,0,0,6.83,6.27c-2.59.16-4.26.79-5.33,2.46Z"/><path class="cls-2" d="M26.27,52.35c-1.3.08-2.28-.73-3.36-1.26-.63-.3-1.36-1.05-.95-1.49,1.91-2-.44-3.55-.16-5.7-1,1-.29,2.74-2.21,2.46-2.27-.34-6-2.49-6.45-4.07-.38-1.31,1.2-3.83,3.26-5.15-1.8-1.12-1.47-3.57-3.19-4.78-2.34-1.66-.88-.9,0-3.61.81-2.48,1.58-2,1.21-4.8,2.72.45,3.65,1.42,6,2.4a26.7,26.7,0,0,1,1.2-2.4c-1.2-7.21,0,2.4-1.2-6,.68-1-2-5.82,2.4-3.61-2.4-1.2,2.33,2.66,4.81,4.81-.87-3.53-1.41-2.71,0-6,1.45,2.26,1,1.45,2.4,3.61h0a19.38,19.38,0,0,1,0-2.41c.05-.9-.3-2.3,1.2-2.4,1.34-.09,1,2.8,1.2,3.6.3,1.06-.22.08,0,1.21,1.12-.51.85-1.72,1.21-2.41.63-1.24-.67-3.67,1.2-3.6,1.66,0,.58,1.12,1.2,2.4.3.63-.91,1.94,0,2.4.82-.58.86-.51,1.2-1.2.52-1.05-.51-3.74,1.2-3.6,1.4.11-.07,4.89,0,6,.11,1.74,0-1.18,0,1.2,2.38-2.34,3-2.74,4.81-4.81,1.34,3.2,1,3.58,0,7.21,2.58-2.24,1.27-4,3.61-6,.56,3.42,4.09,4.19,3.6,7.21-.55,3.42.06,2.08,0,4.81-.07,3.13,2-2.15,4.81-2.4-.29,2.28,2.32,5.34,1.2,7.21-3.61,6-2.4,1.2-3.61,6-1.18.73.3.38-1.2,1.2,2.09.45,1.41,1.15,2.41,2.4a3.12,3.12,0,0,1,0,3.61c-1.65,1.67-.65,1.63-2.94,2-1.09.15-2.25.06-3.17.92,0,1.31,2.19,1.22,1.78,2.46s-2,1.53-3.18,2.06l0,0c-1.67-2.23-4.06-1.75-6.51-1.75A21.51,21.51,0,0,0,46.77,43c.38-.71,1.38-1.46.88-2.21-.64-.94-1.7-.07-2.57.05-.34,0-.66.16-1.59.39,1.38-1.8,2.95-2.26,4.2-3.14,1-.72,1.81-1.59,1-2.79s-1.78-.14-2.6.32-1.51,1.43-3,1.28a9,9,0,0,1,2.85-3.69c.7-.62,1.47-1.17,2.11-1.85,1.32-1.42.57-2.65-.62-3.59-1.35-1.08-1.77.36-2.25,1.13-1.06,1.73-2,3.53-3.19,5.21-.1-2.27,1.16-4.15,1.63-6.24.32-1.42.65-2.8-.38-4a2.49,2.49,0,0,0-2.43-1.12c-.91.21-.8,1.19-1,1.87-.52,2.16-.1,4.49-1.21,6.77-.3-1.95-.46-3.71-.87-5.4-.3-1.24-.7-2.86-2.28-2.81-1.35,0-1.68,1.56-2.12,2.7-.65,1.69-.37,3.52-.78,5.68-1.16-2.24-.7-4.38-1.21-6.31-.25-.94.23-2.66-1.51-2.48a2.84,2.84,0,0,0-2.63,3.13c0,2.11,1,4,1.64,5.94a3.62,3.62,0,0,1,.38,2.81c-1.18-2.08-2.1-3.77-3.08-5.41-.46-.77-.77-1.94-1.91-1.77-.84.12-1.32,1-1.67,1.78-.48,1.06.08,1.79.81,2.45,1.68,1.53,3.74,2.74,4.56,5.19-1.48.25-2.14-.84-3.06-1.36s-1.61-1.41-2.42-.28-.18,2.08.87,2.81c1.26.89,2.82,1.39,3.91,2.65-.29.17-.44.33-.57.32-1.07-.11-2.41-1.23-3.13-.26s.66,2,1.2,2.9a15.75,15.75,0,0,0,6.82,6.27c-2.58.16-4.25.8-5.32,2.47Z"/><path class="cls-3" d="M33.39,95.39c1.06.3,1.85.3,1.67-1.19-.34-2.94-2.12-4.63-4.71-5.74-.76-.33-2.05-.13-2-1.54,0-.63.51-1,1-1.21,1.15-.56,2,.08,2.75.79,1.21,1.1,1.43,2.81,2.45,4.13.33-3-2.35-6.72-5.73-8.24-1-.47-2.64-.33-2.69-2a2,2,0,0,1,1.51-1.84,3.22,3.22,0,0,1,3.77,1.1c1.83,2,2.15,4.67,3.29,7.46a10.29,10.29,0,0,0,0-4.65c-.21-1.23-1.3-2.4.16-3.78.63-.6-.31-1.74-1.12-2.28s-1.77-1-2.79-1.58c1.26-1.63,2.3.06,3.62.29-.79-2.86-3.15-3.2-5.45-4,2.72-2.06,3.64,1.26,5.84,1.06,0-2.19,0-4.48,0-6.76a55.93,55.93,0,0,1,.3-7.87,7.14,7.14,0,0,0-2.3-6.8c1.19-.7,2.31-.41,3.36-.44,2.07,0,3.86.14,1.85,2.78a.57.57,0,0,0-.07.7c.22.52,1.21,1,.29,1.6-.76.49-1.25-.67-2.21-.6V72.08c1.92.63,2.93-3.14,5.42-1.1-2,1.15-4.77,1.25-5.35,4.36,1.29-.31,2.15-2,3.56-.9-.12,1.23-1.44,1-2,1.56-.95,1-3.14,1.59-.84,3.41.18.15-.19,1-.32,1.55a11.7,11.7,0,0,0-.38,5.75c1-2.24,1.61-4.13,2.53-5.88.81-1.54,2-2.78,4-2.44a2.24,2.24,0,0,1,2.08,2c.12,1.07-.82,1.33-1.63,1.61-4.06,1.41-6.27,4.34-7.36,8.79,1.46-.89,1.43-2.16,2.05-3a4.52,4.52,0,0,1,2.48-2.16,1.77,1.77,0,0,1,2.24,1.22c.32,1-.6,1.15-1.29,1.44-4.28,1.82-5.56,3.64-5.1,7.21a5.57,5.57,0,0,0,4.71-3.22c5.81-10,14.37-12.86,25.19-8.64,1.67.65,2.21,1.22,1.2,3C64.86,91,61.62,94.77,56.69,97c.54,1.33,2.26.94,2.89,2.5a14,14,0,0,0-8.85-1.71,21,21,0,0,1-9-1.72c-3.2-1.23-4.25-.81-6,2.35l-2.19-3ZM48.09,86c.13,1.29,1,1.31,2,1.39A29.48,29.48,0,0,1,54,88c1.81.38,2.49,1.48,1.18,3-1.95,2.19-.45,3,1.21,4,.58-.89-.81-1.57-.12-2.32,1-.22,1.56,1.2,2.59.58.24-.89-1.08-1.11-.78-2,.64-.79,1.58.65,2.2-.27-.3-.47-.93-1.09-.81-1.32.57-1.08,1.7,0,2.46-.44a6.12,6.12,0,0,0-1.72-3.9c-.91,0-.9,1.47-2.07,1.23,0-.62-.06-1.26-.09-2-.94.6-1.07,1.64-2,1.85-1-.62.51-1.84-.6-2.42-1.79,2.31-1.79,2.31-2.94.68C51.82,86.21,50,86.79,48.09,86Z"/><path class="cls-3" d="M11.35,99.31c.64-1.19,2.09-1.12,3.15-2.07-1.63-1.09-3.28-2-4.77-3.21A23,23,0,0,1,4.34,87.6c-1.89-3.16-1.86-3.29,1.76-4.44,4.74-1.5,9.52-2.09,14.29-.19a7.16,7.16,0,0,1,3.67,2.44c-1.26-.1-1.81,1.27-2.9,1.45-.85-.63.15-1.46-.33-2.11-.68.35-.44,1.47-1.52,1.63l-.89-2.09c-1.27,3.86-1.74.09-2.55-.19-.7,1.73-2.93,2.59-4.21,1.75-.37-.24-1.19-.95-1.11-.58.29,1.26-2.07,1-1.12,2,.61.65-.6,1.95.65,1.87,2.35-.14,1,1.16.82,1.93.91.48,1.69-.61,2.49,0,.3,1.09-1.63,1-1.16,2.17,1.14.66,1.7-1.27,2.92-.5l-.62,2.28c1.87-1.22,3.19-2.19,1.41-4.26-1.19-1.38-.58-2.4,1.1-2.8a8.71,8.71,0,0,1,2.74-.54A4.29,4.29,0,0,0,24,85.38c3,1.49,4.55,4.25,6.17,6.92.83,1.37,1.66,2.58,3.24,3.09l.06-.06a10.6,10.6,0,0,0-4.33.8,17.57,17.57,0,0,1-7.86,1.58,20.81,20.81,0,0,0-10,1.54Z"/><path class="cls-4" d="M30.55,41.31a2.94,2.94,0,0,1,1.73-3c1.56-.7,1.92.63,2.43,1.57s1,1.33,1.66.07,1.16-2.63,2.86-1.43,1.73,2.8.92,4.48a6.37,6.37,0,0,1-1.46,1.62c-1,1-2.14,2.6-3.67,1.85C32.91,45.48,30.63,44.24,30.55,41.31Z"/><path class="cls-3" d="M31.47,98.37a6.27,6.27,0,0,0-3.28,4.11,1.37,1.37,0,0,1-2,1,1.57,1.57,0,0,1-1-2.24C26.25,98.61,28.37,98.11,31.47,98.37Z"/><path class="cls-3" d="M39.58,98.36c3-.22,4.94.19,6.07,2.27.59,1.08.7,2.23-.66,2.81s-1.92-.28-2.21-1.38A5.86,5.86,0,0,0,39.58,98.36Z"/><path class="cls-3" d="M11.29,99.25c-.36,1.59-1.29,3.23.36,4.63a1.94,1.94,0,0,0,1.23.51c.8,0,.33-.67.28-1a1.65,1.65,0,0,1,1.48-2,1.45,1.45,0,0,1,1.7,1.13A1.89,1.89,0,0,1,15,104.88c-1.52.58-3.07.47-4.05-.91-1.11-1.55-1.41-3.25.41-4.65Z"/><path class="cls-3" d="M40.8,58.37c2.2,0,1.84,1.29,2.48,1.71,1.45-1.37.29-3,.53-4.24,2.28-1.71,0,4.47,3,1.31.27,3-2.43,3.65-4.09,4.14S42.23,59.38,40.8,58.37Z"/><path class="cls-3" d="M26.25,52.4c1.65-1,3.29-2.2,5.4-1.43.68.24,1.55.57,1.5,1.4s-.95.75-1.56.92a7.14,7.14,0,0,1-5.29-.95Z"/><path class="cls-3" d="M46.61,51.78a15.56,15.56,0,0,1-5,1.67c-.8.12-1.56.1-1.66-1a1.42,1.42,0,0,1,1.24-1.61,8,8,0,0,1,5.44.93Z"/><path class="cls-3" d="M57.58,105.21c-1.37-.22-2.72-.48-2.85-2.17-.08-1.14.64-1.71,1.74-1.73,2.39,0,.57,2.74,2.18,3.38C58.89,104.79,57.93,105,57.58,105.21Z"/><path class="cls-3" d="M31.36,67.12c1.18-.29,1.12-1.91,2.54-2.28.19,1.75-1,3.2-.52,5.11a14.64,14.64,0,0,0-4.79-1.71c1-1.95,2.3-.12,3.34-.46a.92.92,0,0,0-.1-.48c-.1-.11-.31-.12-.47-.18Z"/><path class="cls-3" d="M39.79,67.06c-.2.14-.51.24-.59.44s.14.51.42.39c.91-.4,1.79-1,3.1.1-1.65.79-3.36.78-4.79,2a13.21,13.21,0,0,0-1.08-5c1.92-.1,1.51,2.14,2.94,2.09Z"/><path class="cls-3" d="M29.59,64.31l1.77-2.05v4.86h0c-.49-2.16-2.55-1.71-4-2.37.57-1.34,1.55-.41,2.31-.47Z"/><path class="cls-3" d="M39.79,67.06c0-1.44,0-2.88,0-4.32a13.42,13.42,0,0,0,4.3,1.82c-1.57.92-3.82.35-4.31,2.5Z"/><path class="cls-3" d="M29.63,64.28C28.69,62,26.47,63,24.71,62.47c.42-1.34,1.33-1.37,2.15-.8,1,.72,3.4.12,2.74,2.63Z"/><path class="cls-5" d="M38.46,77.31c2.16-1.58,4.72-1.25,7.22-1.35,3.14-.11,3.15-.13,1.78-2.84a11.39,11.39,0,0,1-.41-9.77c1-2.62,8.57-8,11.6-8,1,0,.65.65.83,1,.59,1.26.15,2.82,1.48,4.5,1.29-6,5.7-6.65,10.57-6.71-.55,4.62-.76,9.37-6.85,10.17.39,1.12,1.07.92,1.54,1,4.2,1.09,4.61,1.45,2.39,5.22-4.38,7.42-9.19,11.73-18.34,6-.38-.24-.88-.63-1.22-.55C45.6,76.94,41.93,75.94,38.46,77.31Z"/><path class="cls-3" d="M30.33,58.37c-2.2,0-1.83,1.29-2.48,1.71-1.44-1.37-.28-3-.53-4.24-2.28-1.71,0,4.47-3,1.31-.27,3,2.44,3.65,4.1,4.14S28.91,59.38,30.33,58.37Z"/><path class="cls-3" d="M41.68,63.73c1-2.29,3.17-1.29,4.92-1.81-.42-1.34-1.32-1.37-2.14-.8-1,.72-3.41.12-2.75,2.63Z"/><path class="cls-6" d="M38.46,77.31c2.16-1.58,4.72-1.25,7.22-1.35,3.14-.11,3.15-.13,1.78-2.84a11.06,11.06,0,0,1-1.29-4.62c.07-2.4,2.11-4.14,2.87-4.73l.23-.16c2.49-1.84,3.74-2.75,4.81-2.41a2.26,2.26,0,0,1,1.2,1.2,4,4,0,0,1,0,2.41,11.49,11.49,0,0,0,0,3.6c.29-1.66,1.51-2.58,2.4-2.4s1.14,1,1.2,1.2a2.93,2.93,0,0,1,0,2.41c-.43.75-1.28,1-1.2,1.2s1,0,2.41,0c.32,0,3-.07,3.6,1.2a1.57,1.57,0,0,1,0,1.2,6.27,6.27,0,0,1-1.2,2.4A7.38,7.38,0,0,1,57.68,78c-2.91.45-5.43-.59-7.41-1.41-.65-.27-.86-.64-1.22-.55C45.6,76.94,41.93,75.94,38.46,77.31Z"/><path class="cls-7" d="M48.56,67a5.81,5.81,0,0,0,0,6.86c2.49,3.12,7.12,2.64,7.78,2.53,1.73-.27,3.25-.91,3.23-1.11s-3.25.23-3.33-.32,2.33-1.42,2.25-1.72-3.23.66-3.36.24,2.56-1.66,2.44-2.09-3.68.56-3.78.16,2.57-1.47,2.49-1.79-3.76.81-3.92.31,2.76-1.93,2.63-2.3-4,1.06-4.11.7,2.92-1.82,2.81-2.15S50,67.41,49.78,67s2.71-1.95,2.63-2.13A5.79,5.79,0,0,0,48.56,67Z"/><path class="cls-5" d="M22.48,76.07c-.34-.08-.83.31-1.21.55-9.15,5.77-14,1.46-18.35-6-2.22-3.77-1.81-4.13,2.4-5.22.47-.13,1.14.07,1.53-1C.77,63.59.55,58.84,0,54.22c4.87.06,9.28.72,10.58,6.71,1.32-1.68.89-3.24,1.47-4.5.18-.38-.18-1,.83-1,3,0,10.57,5.33,11.61,8a11.42,11.42,0,0,1-.42,9.77c-1.37,2.71-1.36,2.73,1.79,2.84,2.49.1,5.05-.23,7.22,1.35C29.61,75.94,25.93,76.94,22.48,76.07Z"/><path class="cls-6" d="M22.48,76.07c-.36-.09-.56.28-1.21.55-2,.82-4.51,1.86-7.42,1.41A7.38,7.38,0,0,1,9,75.62a6.27,6.27,0,0,1-1.2-2.4,1.62,1.62,0,0,1,0-1.2c.59-1.27,3.28-1.21,3.61-1.2,1.39,0,2.3.25,2.4,0s-.77-.45-1.2-1.2a2.93,2.93,0,0,1,0-2.41c.07-.16.46-1,1.2-1.2.89-.18,2.12.74,2.41,2.4a12.13,12.13,0,0,0,0-3.6,3.89,3.89,0,0,1,0-2.41,2.22,2.22,0,0,1,1.2-1.2c1.06-.34,2.31.57,4.8,2.41l.23.16c.77.59,2.8,2.33,2.88,4.73a11.2,11.2,0,0,1-1.3,4.62c-1.37,2.71-1.36,2.73,1.79,2.84,2.49.1,5.05-.23,7.22,1.35C29.61,75.94,25.93,76.94,22.48,76.07Z"/><path class="cls-7" d="M23,67a5.81,5.81,0,0,1,0,6.86c-2.49,3.12-7.12,2.64-7.79,2.53-1.72-.27-3.24-.91-3.23-1.11s3.25.23,3.33-.32S13,73.53,13,73.23s3.23.66,3.36.24S13.83,71.81,14,71.38s3.68.56,3.78.16-2.57-1.47-2.49-1.79,3.76.81,3.92.31-2.76-1.93-2.62-2.3,4,1.06,4.1.7-2.92-1.82-2.81-2.15,3.75,1.1,3.92.68S19,65,19.12,64.86A5.75,5.75,0,0,1,23,67Z"/><path class="cls-1" d="M26.29,156.22c-1.31-.08-2.29.72-3.37,1.25-.62.31-1.35,1.05-.94,1.49,1.9,2-.45,3.54-.17,5.69-1-1-.29-2.73-2.21-2.45-2.27.34-6,2.48-6.45,4.06-.38,1.3,1.2,3.82,3.26,5.14-1.81,1.12-3.66,2.14-5.37,3.35a5.48,5.48,0,0,0-2.13,6.7c.81,2.48,1.65,4.93,1.27,7.74,2.73-.46,4.81-1.94,7.17-2.92,0,.39.11.6,0,.7-4.57,5.9-4.55,5.89-.37,11.82a36.88,36.88,0,0,1,1.85,3.32l6.6-5.71c-.86,3.52-1.59,6.51-.18,9.8l4.22-6.55.76.07c0,2-.07,4,0,5.94.05.9-.57,2.42.93,2.52,1.34.09.83-1.41,1.06-2.22.3-1.05.44-2.15.67-3.27,1.11.5.73,1.53,1.08,2.22.64,1.24-.27,3.72,1.59,3.66,1.67-.06.88-2.52,1.5-3.8.3-.62-.09-1.53.82-2,.82.58.33,1.56.67,2.24.51,1.06-.29,3.2,1.42,3.06,1.39-.11.7-2,.77-3.14.11-1.74,0-3.49,0-5.86,2.38,2.33,3.23,5,5,7,1.34-3.19.73-6.17-.31-9.8l6.95,6c.56-3.41,3.72-5,4.45-7.95.83-3.41-1.74-5.49-4-8.22,3,.8,5.11,2.72,8,3a14.07,14.07,0,0,1,.84-6.4c1.53-4.56.75-6.58-3.39-9.15-1.18-.73-2.45-1.35-4-2.17,2.09-.45,2.34-2.34,3.33-3.59.78-1,.12-2-.65-2.74a10.13,10.13,0,0,0-6-2.85c-1.09-.16-2.25-.07-3.17-.92,0-1.31,2.19-1.22,1.78-2.46s-2-1.53-3.18-2.05l0,0c-1.67,2.23-4.06,1.75-6.52,1.75a21.27,21.27,0,0,1,6.67,7c.39.71,1.39,1.46.89,2.2-.64.95-1.7.08-2.58,0-.33,0-.65-.16-1.58-.39,1.38,1.8,2.95,2.25,4.2,3.13,1,.72,1.81,1.59,1,2.79s-1.78.14-2.6-.32-1.51-1.43-3-1.28a9.1,9.1,0,0,0,2.86,3.68c.7.62,1.47,1.17,2.11,1.85,1.32,1.42.57,2.64-.62,3.58-1.35,1.08-1.78-.36-2.25-1.12-1.06-1.73-2-3.53-3.2-5.21-.09,2.27,1.16,4.15,1.64,6.24.32,1.41.64,2.79-.39,4a2.51,2.51,0,0,1-2.43,1.12c-.91-.21-.8-1.19-1-1.87-.52-2.16-.09-4.48-1.21-6.76-.3,1.95-.46,3.7-.87,5.39-.3,1.24-.7,2.86-2.28,2.8-1.36,0-1.68-1.55-2.12-2.69-.66-1.69-.37-3.51-.79-5.67-1.15,2.23-.7,4.37-1.21,6.3-.24.94.24,2.66-1.51,2.48a2.84,2.84,0,0,1-2.63-3.13c0-2.1,1-4,1.64-5.92a3.65,3.65,0,0,0,.38-2.82c-1.18,2.08-2.1,3.77-3.09,5.41-.46.76-.76,1.93-1.9,1.76-.84-.12-1.32-1-1.68-1.77-.47-1.06.08-1.79.82-2.45,1.68-1.53,3.74-2.73,4.56-5.18-1.48-.25-2.14.84-3.07,1.36-.77.43-1.6,1.4-2.42.28s-.18-2.08.87-2.81c1.27-.89,2.83-1.38,3.91-2.65-.28-.17-.43-.33-.56-.31-1.08.11-2.41,1.23-3.13.25s.66-2,1.2-2.89a15.76,15.76,0,0,1,6.83-6.26c-2.59-.16-4.26-.8-5.33-2.46Z"/><path class="cls-2" d="M26.27,156.22c-1.3-.08-2.28.72-3.36,1.25-.63.31-1.36,1.06-.95,1.5,1.91,2-.44,3.54-.16,5.7-1-1-.29-2.74-2.21-2.46-2.27.34-6,2.49-6.45,4.07-.38,1.3,1.2,3.83,3.26,5.15-1.8,1.12-1.47,3.57-3.19,4.78-2.34,1.66-.88.9,0,3.6.81,2.48,1.58,2,1.21,4.81,2.72-.45,3.65-1.42,6-2.4,0,.39,1.22,2.28,1.2,2.4-1.2,7.21,0-2.4-1.2,6,.68,1-2,5.82,2.4,3.6-2.4,1.21,2.33-2.65,4.81-4.8-.87,3.53-1.41,2.71,0,6,1.45-2.27,1-1.46,2.4-3.61h0a19.22,19.22,0,0,0,0,2.4c.05.91-.3,2.31,1.2,2.41,1.34.08,1-2.8,1.2-3.61.3-1.05-.22-.07,0-1.2,1.12.5.85,1.71,1.21,2.4.63,1.25-.67,3.67,1.2,3.61,1.66-.06.58-1.12,1.2-2.4.3-.63-.91-1.95,0-2.41.82.58.86.52,1.2,1.2.52,1.06-.51,3.74,1.2,3.61,1.4-.11-.07-4.89,0-6,.11-1.74,0,1.17,0-1.2,2.38,2.34,3,2.73,4.81,4.81,1.34-3.2,1-3.58,0-7.21,2.58,2.23,1.27,4,3.61,6,.56-3.41,4.09-4.18,3.6-7.21-.55-3.42.06-2.07,0-4.8-.07-3.13,2,2.14,4.81,2.4-.29-2.29,2.32-5.35,1.2-7.21-3.61-6-2.4-1.2-3.61-6-1.18-.74.3-.38-1.2-1.2,2.09-.46,1.41-1.15,2.41-2.41a3.11,3.11,0,0,0,0-3.6c-1.65-1.67-.65-1.64-2.94-2-1.09-.16-2.25-.07-3.17-.92,0-1.32,2.19-1.22,1.78-2.46s-2-1.54-3.18-2.06l0,0c-1.67,2.22-4.06,1.74-6.51,1.74a21.6,21.6,0,0,1,6.67,7.06c.38.72,1.38,1.47.88,2.21-.64,1-1.7.08-2.57,0-.34-.05-.66-.16-1.59-.39,1.38,1.8,2.95,2.25,4.2,3.13,1,.73,1.81,1.59,1,2.8s-1.78.14-2.6-.33-1.51-1.43-3-1.27a8.93,8.93,0,0,0,2.85,3.68c.7.63,1.47,1.18,2.11,1.86,1.32,1.42.57,2.64-.62,3.59-1.35,1.07-1.77-.37-2.25-1.13-1.06-1.73-2-3.54-3.19-5.22-.1,2.28,1.16,4.16,1.63,6.25.32,1.42.65,2.79-.38,4a2.51,2.51,0,0,1-2.43,1.12c-.91-.21-.8-1.19-1-1.88-.52-2.15-.1-4.48-1.21-6.76-.3,1.95-.46,3.7-.87,5.4-.3,1.24-.7,2.86-2.28,2.8-1.35,0-1.68-1.55-2.12-2.69-.65-1.7-.37-3.52-.78-5.69-1.16,2.24-.7,4.39-1.21,6.32-.25.94.23,2.66-1.51,2.48a2.84,2.84,0,0,1-2.63-3.13c0-2.11,1-4,1.64-5.94a3.65,3.65,0,0,0,.38-2.82c-1.18,2.09-2.1,3.78-3.08,5.42-.46.77-.77,1.94-1.91,1.77-.84-.13-1.32-1-1.67-1.78-.48-1.06.08-1.79.81-2.46,1.68-1.53,3.74-2.73,4.56-5.19-1.48-.24-2.14.85-3.06,1.37s-1.61,1.41-2.42.28-.18-2.08.87-2.81c1.26-.89,2.82-1.39,3.91-2.66-.29-.17-.44-.33-.57-.31-1.07.11-2.41,1.23-3.13.25s.66-2,1.2-2.89a15.83,15.83,0,0,1,6.82-6.28c-2.58-.15-4.25-.79-5.32-2.46Z"/><path class="cls-3" d="M33.45,113.23l2.19-3c1.8,3.15,2.85,3.57,6,2.34a21,21,0,0,1,9-1.71,14.1,14.1,0,0,0,8.85-1.72c-.63,1.56-2.35,1.18-2.89,2.51,4.93,2.19,8.17,6,10.77,10.43,1,1.74.47,2.31-1.2,3-10.82,4.21-19.38,1.39-25.19-8.64a5.58,5.58,0,0,0-4.71-3.23c-.46,3.57.82,5.4,5.1,7.22.69.29,1.61.41,1.29,1.43A1.76,1.76,0,0,1,40.51,123,4.45,4.45,0,0,1,38,120.84c-.62-.88-.59-2.16-2.05-3,1.09,4.46,3.3,7.39,7.36,8.79.81.28,1.75.55,1.63,1.62a2.25,2.25,0,0,1-2.08,2c-2,.34-3.22-.9-4-2.44-.92-1.76-1.58-3.64-2.53-5.88a11.7,11.7,0,0,0,.38,5.75c.13.53.5,1.4.32,1.55-2.3,1.82-.11,2.45.84,3.41.6.61,1.92.32,2,1.55-1.41,1.09-2.27-.59-3.56-.89.58,3.11,3.31,3.21,5.35,4.36-2.49,2-3.5-1.73-5.42-1.1v17.28c1,.06,1.45-1.1,2.21-.6.92.61-.07,1.07-.29,1.59a.58.58,0,0,0,.07.71c2,2.63.22,2.83-1.85,2.77-1.05,0-2.17.26-3.36-.43a7.15,7.15,0,0,0,2.3-6.8,56,56,0,0,1-.3-7.87c0-2.29,0-4.57,0-6.77-2.2-.19-3.12,3.12-5.84,1.06,2.3-.77,4.66-1.12,5.45-4-1.32.23-2.36,1.92-3.62.29,1-.57,1.94-1,2.79-1.58s1.75-1.69,1.12-2.28c-1.46-1.38-.37-2.55-.16-3.78a10.29,10.29,0,0,0,0-4.65c-1.14,2.79-1.46,5.49-3.29,7.45A3.21,3.21,0,0,1,27.69,130a2,2,0,0,1-1.51-1.84c.05-1.68,1.67-1.54,2.69-2,3.38-1.53,6.06-5.26,5.73-8.24-1,1.32-1.24,3-2.45,4.13-.79.71-1.6,1.35-2.75.79-.53-.25-1-.58-1-1.22-.06-1.4,1.23-1.2,2-1.53,2.59-1.11,4.37-2.8,4.71-5.74.18-1.49-.61-1.5-1.67-1.2Zm19,10.7c1.15-1.63,1.15-1.63,2.94.68,1.11-.59-.43-1.8.6-2.42.91.21,1,1.25,2,1.85,0-.73.06-1.36.09-2,1.17-.25,1.16,1.2,2.07,1.23a6.14,6.14,0,0,0,1.72-3.9c-.76-.48-1.89.64-2.46-.44-.12-.23.51-.86.81-1.33-.62-.92-1.56.52-2.2-.26-.3-.88,1-1.1.78-2-1-.62-1.59.8-2.59.58-.69-.75.7-1.44.12-2.32-1.66,1-3.16,1.83-1.21,4,1.31,1.47.63,2.57-1.18,2.95a33.29,33.29,0,0,1-3.86.59c-1,.08-1.89.1-2,1.38C50,121.78,51.82,122.36,52.5,123.93Z"/><path class="cls-3" d="M11.35,109.25c.64,1.2,2.09,1.13,3.15,2.08-1.63,1.08-3.28,2-4.77,3.21A23,23,0,0,0,4.34,121c-1.89,3.16-1.86,3.3,1.76,4.45,4.74,1.5,9.52,2.08,14.29.19a7.22,7.22,0,0,0,3.67-2.44c-1.26.09-1.81-1.27-2.9-1.45-.85.63.15,1.46-.33,2.11-.68-.35-.44-1.47-1.52-1.64l-.89,2.09c-1.27-3.85-1.74-.08-2.55.2-.7-1.73-2.93-2.6-4.21-1.76-.37.25-1.19,1-1.11.59.29-1.26-2.07-1-1.12-2,.61-.66-.6-2,.65-1.88,2.35.14,1-1.15.82-1.93.91-.48,1.69.62,2.49,0,.3-1.09-1.63-1-1.16-2.18,1.14-.65,1.7,1.28,2.92.5l-.62-2.28c1.87,1.23,3.19,2.2,1.41,4.27-1.19,1.38-.58,2.39,1.1,2.8a9,9,0,0,0,2.74.54,4.28,4.28,0,0,1,4.2,2.07c3-1.49,4.55-4.26,6.17-6.93.83-1.36,1.66-2.58,3.24-3.09l.06.06a10.59,10.59,0,0,1-4.33-.79,17.58,17.58,0,0,0-7.86-1.59,20.57,20.57,0,0,1-10-1.54Z"/><path class="cls-4" d="M30.55,167.26a2.94,2.94,0,0,0,1.73,3c1.56.7,1.92-.64,2.43-1.57s1-1.33,1.66-.07,1.16,2.62,2.86,1.42,1.73-2.8.92-4.47a6.41,6.41,0,0,0-1.46-1.63c-1-1-2.14-2.59-3.67-1.85C32.91,163.08,30.63,164.33,30.55,167.26Z"/><path class="cls-3" d="M31.47,110.2a6.29,6.29,0,0,1-3.28-4.11,1.37,1.37,0,0,0-2-1,1.57,1.57,0,0,0-1,2.24C26.25,110,28.37,110.45,31.47,110.2Z"/><path class="cls-3" d="M39.58,110.21c3,.21,4.94-.2,6.07-2.28.59-1.07.7-2.22-.66-2.8s-1.92.28-2.21,1.37A5.87,5.87,0,0,1,39.58,110.21Z"/><path class="cls-3" d="M11.29,109.31c-.36-1.58-1.29-3.22.36-4.62a2,2,0,0,1,1.23-.52c.8.06.33.68.28,1.06a1.66,1.66,0,0,0,1.48,2,1.46,1.46,0,0,0,1.7-1.13A1.89,1.89,0,0,0,15,103.69c-1.52-.59-3.07-.47-4.05.9-1.11,1.56-1.41,3.26.41,4.66Z"/><path class="cls-3" d="M40.8,150.2c2.2,0,1.84-1.3,2.48-1.71,1.45,1.37.29,3,.53,4.24,2.28,1.71,0-4.47,3-1.32.27-3-2.43-3.65-4.09-4.13S42.23,149.19,40.8,150.2Z"/><path class="cls-3" d="M26.25,156.17c1.65,1,3.29,2.2,5.4,1.43.68-.25,1.55-.57,1.5-1.41s-.95-.74-1.56-.91a7.09,7.09,0,0,0-5.29.95Z"/><path class="cls-3" d="M46.61,156.78a15.78,15.78,0,0,0-5-1.66c-.8-.12-1.56-.1-1.66,1a1.42,1.42,0,0,0,1.24,1.61,8,8,0,0,0,5.44-.93S46.61,156.78,46.61,156.78Z"/><path class="cls-3" d="M57.58,103.36c-1.37.21-2.72.47-2.85,2.17-.08,1.13.64,1.71,1.74,1.73,2.39,0,.57-2.74,2.18-3.39C58.89,103.78,57.93,103.58,57.58,103.36Z"/><path class="cls-3" d="M31.36,141.45c1.18.29,1.12,1.91,2.54,2.28.19-1.75-1-3.2-.52-5.11a14.88,14.88,0,0,1-4.79,1.71c1,1.95,2.3.12,3.34.46a.89.89,0,0,1-.1.47c-.1.12-.31.13-.47.19Z"/><path class="cls-3" d="M39.79,141.51c-.2-.14-.51-.24-.59-.44s.14-.51.42-.39c.91.4,1.79.95,3.1-.11-1.65-.78-3.36-.77-4.79-2a13.21,13.21,0,0,1-1.08,5c1.92.1,1.51-2.14,2.94-2.09Z"/><path class="cls-3" d="M29.59,144.26l1.77,2.05v-4.86h0c-.49,2.16-2.55,1.7-4,2.37.57,1.34,1.55.41,2.31.47Z"/><path class="cls-3" d="M39.79,141.51c0,1.44,0,2.88,0,4.32A13.42,13.42,0,0,1,44.1,144c-1.57-.92-3.82-.35-4.31-2.5Z"/><path class="cls-3" d="M29.63,144.29c-.94,2.28-3.16,1.28-4.92,1.8.42,1.35,1.33,1.38,2.15.81,1-.73,3.4-.12,2.74-2.63Z"/><path class="cls-5" d="M49.05,132.49c.34.09.84-.3,1.22-.54,9.15-5.77,14-1.46,18.34,6,2.22,3.77,1.81,4.14-2.39,5.23-.47.12-1.15-.07-1.54,1.05,6.09.8,6.3,5.55,6.85,10.17-4.87-.06-9.28-.73-10.57-6.72-1.33,1.69-.89,3.24-1.48,4.51-.18.38.19,1-.83,1-3,0-10.57-5.34-11.6-7.95a11.38,11.38,0,0,1,.41-9.77c1.37-2.72,1.36-2.73-1.78-2.85-2.5-.09-5.06.24-7.22-1.34C41.93,132.62,45.6,131.62,49.05,132.49Z"/><path class="cls-3" d="M30.33,150.2c-2.2,0-1.83-1.3-2.48-1.71-1.44,1.37-.28,3-.53,4.24-2.28,1.71,0-4.47-3-1.32-.27-3,2.44-3.65,4.1-4.13S28.91,149.19,30.33,150.2Z"/><path class="cls-3" d="M41.68,144.84c1,2.28,3.17,1.28,4.92,1.8-.42,1.35-1.32,1.38-2.14.81-1-.72-3.41-.12-2.75-2.63Z"/><path class="cls-6" d="M49.05,132.49c.36.1.57-.28,1.22-.54,2-.82,4.5-1.86,7.41-1.41a7.41,7.41,0,0,1,4.81,2.4,6.3,6.3,0,0,1,1.2,2.41,1.57,1.57,0,0,1,0,1.2c-.58,1.26-3.28,1.21-3.6,1.2-1.4,0-2.31-.26-2.41,0s.77.45,1.2,1.2a2.91,2.91,0,0,1,0,2.4c-.06.16-.45,1.06-1.2,1.21s-2.11-.74-2.4-2.41a11.55,11.55,0,0,0,0,3.61,3.93,3.93,0,0,1,0,2.4,2.19,2.19,0,0,1-1.2,1.2c-1.07.35-2.32-.57-4.81-2.4l-.23-.17c-.76-.58-2.8-2.33-2.87-4.72a11.06,11.06,0,0,1,1.29-4.62c1.37-2.72,1.36-2.73-1.78-2.85-2.5-.09-5.06.24-7.22-1.34C41.93,132.62,45.6,131.62,49.05,132.49Z"/><path class="cls-7" d="M48.56,141.58a5.81,5.81,0,0,1,0-6.86c2.49-3.13,7.12-2.64,7.78-2.54,1.73.28,3.25.91,3.23,1.12s-3.25-.23-3.33.32,2.33,1.42,2.25,1.72-3.23-.66-3.36-.25,2.56,1.67,2.44,2.1-3.68-.56-3.78-.16,2.57,1.47,2.49,1.79-3.76-.81-3.92-.32,2.76,1.94,2.63,2.31-4-1.06-4.11-.7,2.92,1.82,2.81,2.14-3.75-1.09-3.92-.67,2.71,1.94,2.63,2.12A5.71,5.71,0,0,1,48.56,141.58Z"/><path class="cls-5" d="M33.08,131.26c-2.17,1.58-4.73,1.25-7.22,1.34-3.15.12-3.16.13-1.79,2.85a11.42,11.42,0,0,1,.42,9.77c-1,2.61-8.58,7.95-11.61,7.95-1,0-.65-.65-.83-1-.58-1.27-.15-2.82-1.47-4.51-1.3,6-5.71,6.66-10.58,6.72.55-4.62.77-9.37,6.85-10.17-.39-1.12-1.06-.93-1.53-1.05C1.11,142,.7,141.67,2.92,137.9c4.38-7.41,9.2-11.72,18.35-6,.38.24.87.63,1.21.54C25.93,131.62,29.61,132.62,33.08,131.26Z"/><path class="cls-6" d="M33.08,131.26c-2.17,1.58-4.73,1.25-7.22,1.34-3.15.12-3.16.13-1.79,2.85a11.2,11.2,0,0,1,1.3,4.62c-.08,2.39-2.11,4.14-2.88,4.72l-.23.17c-2.49,1.83-3.74,2.75-4.8,2.4a2.16,2.16,0,0,1-1.2-1.2,3.86,3.86,0,0,1,0-2.4,12.2,12.2,0,0,0,0-3.61c-.29,1.67-1.52,2.58-2.41,2.41-.74-.15-1.13-1.05-1.2-1.21a2.91,2.91,0,0,1,0-2.4c.43-.75,1.28-1,1.2-1.2s-1,0-2.4,0c-.33,0-3,.06-3.61-1.2a1.62,1.62,0,0,1,0-1.2A6.3,6.3,0,0,1,9,132.94a7.41,7.41,0,0,1,4.81-2.4c2.91-.45,5.43.59,7.42,1.41.65.26.85.64,1.21.54C25.93,131.62,29.61,132.62,33.08,131.26Z"/><path class="cls-7" d="M23,141.58a5.81,5.81,0,0,0,0-6.86c-2.49-3.13-7.12-2.64-7.79-2.54-1.72.28-3.24.91-3.23,1.12s3.25-.23,3.33.32S13,135,13,135.34s3.23-.66,3.36-.25-2.56,1.67-2.44,2.1,3.68-.56,3.78-.16-2.57,1.47-2.49,1.79,3.76-.81,3.92-.32-2.76,1.94-2.62,2.31,4-1.06,4.1-.7-2.92,1.82-2.81,2.14,3.75-1.09,3.92-.67-2.71,1.94-2.63,2.12A5.67,5.67,0,0,0,23,141.58Z"/></g></g></svg>